<svg width="144" height="24" viewBox="0 0 144 24" fill="none" xmlns="http://www.w3.org/2000/svg">
<g clip-path="url(#clip0_7_47)">
<path d="M2.0205 19.7432C2.28609 19.7433 2.54909 19.691 2.79446 19.5894C3.03984 19.4878 3.26276 19.3388 3.45049 19.1509C3.63822 18.963 3.78707 18.74 3.88852 18.4945C3.98998 18.2491 4.04205 17.986 4.04175 17.7205V2.02296C4.04175 1.75757 3.98948 1.49479 3.88792 1.2496C3.78636 1.00442 3.63751 0.78164 3.44985 0.593985C3.2622 0.406329 3.03942 0.257472 2.79423 0.155914C2.54905 0.0543554 2.28626 0.00208394 2.02088 0.00208394C1.75549 0.00208394 1.4927 0.0543554 1.24752 0.155914C1.00234 0.257472 0.779557 0.406329 0.591902 0.593985C0.404246 0.78164 0.25539 1.00442 0.153831 1.2496C0.0522727 1.49479 1.24731e-06 1.75757 1.2529e-06 2.02296V17.7205C-0.000294432 17.986 0.0517492 18.249 0.153156 18.4944C0.254564 18.7398 0.403346 18.9628 0.590996 19.1506C0.778646 19.3385 1.00148 19.4875 1.24677 19.5892C1.49205 19.6909 1.75498 19.7432 2.0205 19.7432ZM13.65 19.903C18.09 19.903 21.3878 16.5767 21.3878 12.4795V12.4262C21.3878 8.32821 18.1178 5.05596 13.7033 5.05596C9.26325 5.05596 5.9655 8.38146 5.9655 12.4795V12.532C5.9655 16.63 9.23625 19.903 13.65 19.903ZM13.7033 16.417C11.4698 16.417 9.954 14.581 9.954 12.4795V12.4262C9.954 10.324 11.337 8.54121 13.65 8.54121C15.8835 8.54121 17.4 10.3772 17.4 12.4787V12.5327C17.4 14.6342 16.017 16.4177 13.7033 16.4177V16.417ZM30.1185 19.903C34.5592 19.903 37.8562 16.5767 37.8562 12.4795V12.4262C37.8562 8.32821 34.5863 5.05596 30.1717 5.05596C25.7318 5.05596 22.434 8.38146 22.434 12.4795V12.532C22.434 16.63 25.7048 19.903 30.1185 19.903ZM30.1717 16.417C27.9382 16.417 26.4225 14.581 26.4225 12.4795V12.4262C26.4225 10.324 27.8055 8.54121 30.1185 8.54121C32.3528 8.54121 33.8685 10.3772 33.8685 12.4787V12.5327C33.8685 14.6342 32.4855 16.4177 30.1717 16.4177V16.417ZM41.6152 24.0002C41.8807 24.0002 42.1436 23.9479 42.3888 23.8463C42.634 23.7446 42.8568 23.5957 43.0445 23.4079C43.2321 23.2201 43.3809 22.9972 43.4824 22.7519C43.5838 22.5066 43.6359 22.2437 43.6357 21.9782V17.7205C44.5935 18.865 45.9232 19.8497 48.0765 19.8497C51.4537 19.8497 54.564 17.242 54.564 12.4795V12.4262C54.564 7.66371 51.4005 5.05596 48.0765 5.05596C45.9765 5.05596 44.6198 6.03996 43.6365 7.37046V7.18521C43.6365 6.64914 43.4235 6.13503 43.0445 5.75597C42.6654 5.37691 42.1513 5.16396 41.6152 5.16396C41.0792 5.16396 40.5651 5.37691 40.186 5.75597C39.807 6.13503 39.594 6.64914 39.594 7.18521V21.979C39.5939 22.2445 39.6461 22.5074 39.7477 22.7528C39.8493 22.9981 39.9983 23.221 40.1861 23.4087C40.3738 23.5964 40.5968 23.7453 40.8422 23.8468C41.0875 23.9483 41.3505 24.0004 41.616 24.0002H41.6152ZM47.0393 16.4177C45.1515 16.4177 43.5833 14.8472 43.5833 12.4795V12.4262C43.5833 10.0577 45.1515 8.48871 47.0393 8.48871C48.9277 8.48871 50.523 10.0577 50.523 12.4262V12.4787C50.523 14.8735 48.9277 16.417 47.0393 16.417V16.4177ZM61.3545 19.8497C64.4392 19.8497 66.8055 18.4127 66.8055 15.2462V15.1937C66.8055 12.5852 64.4925 11.6275 62.4983 10.9622C60.9555 10.4297 59.5995 10.0577 59.5995 9.25971V9.20646C59.5995 8.64771 60.105 8.22171 61.0882 8.22171C61.9395 8.22171 63.03 8.56821 64.173 9.12696C64.4393 9.25971 64.6253 9.31296 64.9177 9.31296C65.8215 9.31296 66.5393 8.62071 66.5393 7.71621C66.5393 7.02471 66.1673 6.49221 65.5823 6.19971C64.2 5.50821 62.6572 5.10921 61.1685 5.10921C58.296 5.10921 55.9567 6.73221 55.9567 9.63171V9.68571C55.9567 12.4532 58.2172 13.3832 60.2115 13.969C61.7797 14.4482 63.1628 14.7415 63.1628 15.619V15.6715C63.1628 16.3105 62.6302 16.7365 61.4603 16.7365C60.3172 16.7365 58.9613 16.3105 57.6052 15.4592C57.3634 15.3173 57.0876 15.2437 56.8072 15.2462C55.9035 15.2462 55.212 15.9385 55.212 16.843C55.212 17.4812 55.5577 17.9605 55.983 18.2267C57.7117 19.3442 59.5995 19.8497 61.3545 19.8497ZM73.0635 19.8227C73.941 19.8227 74.6325 19.7162 75.3773 19.4237C75.6812 19.3026 75.9422 19.0937 76.1268 18.8236C76.3114 18.5534 76.4113 18.2344 76.4137 17.9072C76.4112 17.4637 76.234 17.039 75.9205 16.7253C75.607 16.4115 75.1825 16.2339 74.739 16.231C74.6588 16.231 74.3932 16.2572 74.2605 16.2572C73.356 16.2572 72.957 15.805 72.957 14.8735V8.78046H74.739C74.9662 8.78086 75.1912 8.73638 75.4011 8.64959C75.611 8.56279 75.8017 8.43539 75.9623 8.27469C76.1228 8.114 76.2501 7.92317 76.3367 7.71317C76.4233 7.50316 76.4676 7.27812 76.467 7.05096C76.4676 6.8238 76.4233 6.59876 76.3367 6.38875C76.2501 6.17875 76.1228 5.98793 75.9623 5.82723C75.8017 5.66653 75.611 5.53913 75.4011 5.45233C75.1912 5.36554 74.9662 5.32106 74.739 5.32146H72.957V3.53871C72.957 3.00274 72.7441 2.48872 72.3651 2.10973C71.9861 1.73075 71.4721 1.51783 70.9361 1.51783C70.4002 1.51783 69.8861 1.73075 69.5071 2.10973C69.1282 2.48872 68.9153 3.00274 68.9153 3.53871V5.32146H68.7825C68.5553 5.32106 68.3303 5.36554 68.1204 5.45233C67.9105 5.53913 67.7198 5.66653 67.5592 5.82723C67.3987 5.98793 67.2714 6.17875 67.1848 6.38875C67.0982 6.59876 67.0539 6.8238 67.0545 7.05096C67.0539 7.27812 67.0982 7.50316 67.1848 7.71317C67.2714 7.92317 67.3987 8.114 67.5592 8.27469C67.7198 8.43539 67.9105 8.56279 68.1204 8.64959C68.3303 8.73638 68.5553 8.78086 68.7825 8.78046H68.9153V15.5387C68.9153 18.8387 70.5908 19.8227 73.0635 19.8227ZM82.8315 19.8497C84.879 19.8497 86.0752 18.7585 87.006 17.5615V17.7205C87.006 18.2565 87.219 18.7706 87.598 19.1497C87.9771 19.5288 88.4912 19.7417 89.0273 19.7417C89.5633 19.7417 90.0774 19.5288 90.4565 19.1497C90.8355 18.7706 91.0485 18.2565 91.0485 17.7205V7.18521C91.0485 6.64914 90.8355 6.13503 90.4565 5.75597C90.0774 5.37691 89.5633 5.16396 89.0273 5.16396C88.4912 5.16396 87.9771 5.37691 87.598 5.75597C87.219 6.13503 87.006 6.64914 87.006 7.18521V13.2782C87.006 15.1937 86.0228 16.1785 84.48 16.1785C82.938 16.1785 82.0342 15.1937 82.0342 13.2782V7.18446C82.0342 6.64839 81.8213 6.13428 81.4422 5.75522C81.0632 5.37616 80.5491 5.16321 80.013 5.16321C79.4769 5.16321 78.9628 5.37616 78.5838 5.75522C78.2047 6.13428 77.9917 6.64839 77.9917 7.18446V14.5547C77.9917 17.827 79.7738 19.8497 82.8315 19.8497ZM99.327 19.8497C101.427 19.8497 102.784 18.865 103.767 17.5345V17.7205C103.767 18.2565 103.98 18.7706 104.359 19.1497C104.738 19.5288 105.252 19.7417 105.788 19.7417C106.324 19.7417 106.838 19.5288 107.217 19.1497C107.597 18.7706 107.81 18.2565 107.81 17.7205V2.02296C107.81 1.48689 107.597 0.972777 107.217 0.593719C106.838 0.214662 106.324 0.00170898 105.788 0.00170898C105.252 0.00170898 104.738 0.214662 104.359 0.593719C103.98 0.972777 103.767 1.48689 103.767 2.02296V7.18446C102.81 6.03996 101.481 5.05596 99.327 5.05596C95.9498 5.05596 92.8395 7.66296 92.8395 12.4262V12.4787C92.8395 17.2412 96.003 19.8497 99.327 19.8497ZM100.364 16.417C98.4758 16.417 96.8805 14.8472 96.8805 12.4795V12.4262C96.8805 10.0315 98.4758 8.48871 100.364 8.48871C102.252 8.48871 103.82 10.0577 103.82 12.4262V12.4787C103.82 14.8472 102.252 16.417 100.364 16.417ZM112.445 3.88446C113.722 3.88446 114.706 3.13971 114.706 1.96896V1.91646C114.706 0.744959 113.722 0.026459 112.445 0.026459C111.169 0.026459 110.186 0.744959 110.186 1.91646V1.96896C110.186 3.13971 111.169 3.88521 112.445 3.88521V3.88446ZM112.445 19.7432C112.711 19.7432 112.974 19.6909 113.219 19.5892C113.464 19.4875 113.687 19.3385 113.875 19.1506C114.062 18.9628 114.211 18.7398 114.313 18.4944C114.414 18.249 114.466 17.986 114.466 17.7205V7.18521C114.466 6.64934 114.253 6.13542 113.874 5.7565C113.495 5.37758 112.981 5.16471 112.445 5.16471C111.909 5.16471 111.395 5.37758 111.017 5.7565C110.638 6.13542 110.425 6.64934 110.425 7.18521V17.7212C110.424 17.9867 110.477 18.2497 110.578 18.4951C110.679 18.7405 110.828 18.9635 111.016 19.1514C111.203 19.3392 111.426 19.4883 111.672 19.5899C111.917 19.6916 112.18 19.744 112.445 19.744V19.7432ZM124.075 19.903C128.515 19.903 131.812 16.5767 131.812 12.4795V12.4262C131.812 8.32821 128.542 5.05596 124.128 5.05596C119.687 5.05596 116.39 8.38146 116.39 12.4795V12.532C116.39 16.63 119.66 19.903 124.075 19.903ZM124.127 16.417C121.895 16.417 120.379 14.581 120.379 12.4795V12.4262C120.379 10.324 121.761 8.54121 124.075 8.54121C126.308 8.54121 127.824 10.3772 127.824 12.4787V12.5327C127.824 14.6342 126.441 16.4177 124.128 16.4177L124.127 16.417ZM138.55 19.8497C141.634 19.8497 144 18.4127 144 15.2462V15.1937C144 12.5852 141.687 11.6275 139.693 10.9622C138.15 10.4297 136.794 10.0577 136.794 9.25971V9.20646C136.794 8.64771 137.299 8.22171 138.284 8.22171C139.134 8.22171 140.225 8.56821 141.368 9.12696C141.634 9.25971 141.82 9.31296 142.112 9.31296C143.016 9.31296 143.734 8.62071 143.734 7.71621C143.734 7.02471 143.362 6.49221 142.777 6.19971C141.395 5.50821 139.852 5.10921 138.363 5.10921C135.49 5.10921 133.151 6.73221 133.151 9.63171V9.68571C133.151 12.4532 135.412 13.3832 137.406 13.969C138.974 14.4482 140.357 14.7415 140.357 15.619V15.6715C140.357 16.3105 139.825 16.7365 138.655 16.7365C137.512 16.7365 136.156 16.3105 134.8 15.4592C134.558 15.3174 134.283 15.2438 134.003 15.2462C133.098 15.2462 132.407 15.9385 132.407 16.843C132.407 17.4812 132.752 17.9605 133.178 18.2267C134.906 19.3442 136.794 19.8497 138.549 19.8497H138.55Z" fill="white"/>
</g>
<defs>
<clipPath id="clip0_7_47">
<rect width="144" height="24" fill="white"/>
</clipPath>
</defs>
</svg>
